<?xml version="1.0" encoding="UTF-8" standalone="no"?>
<!-- Created with Inkscape (http://www.inkscape.org/) -->

<svg
   width="210mm"
   height="297mm"
   viewBox="0 0 210 297"
   version="1.1"
   id="svg1"
   xml:space="preserve"
   inkscape:version="1.4 (86a8ad7, 2024-10-11)"
   sodipodi:docname="drawing.svg"
   xmlns:inkscape="http://www.inkscape.org/namespaces/inkscape"
   xmlns:sodipodi="http://sodipodi.sourceforge.net/DTD/sodipodi-0.dtd"
   xmlns="http://www.w3.org/2000/svg"
   xmlns:svg="http://www.w3.org/2000/svg"><sodipodi:namedview
     id="namedview1"
     pagecolor="#505050"
     bordercolor="#eeeeee"
     borderopacity="1"
     inkscape:showpageshadow="0"
     inkscape:pageopacity="0"
     inkscape:pagecheckerboard="0"
     inkscape:deskcolor="#505050"
     inkscape:document-units="mm"
     inkscape:zoom="0.52203984"
     inkscape:cx="394.6059"
     inkscape:cy="637.88235"
     inkscape:window-width="1440"
     inkscape:window-height="830"
     inkscape:window-x="-6"
     inkscape:window-y="-6"
     inkscape:window-maximized="1"
     inkscape:current-layer="layer1" /><defs
     id="defs1" /><g
     inkscape:label="Layer 1"
     inkscape:groupmode="layer"
     id="layer1"><path
       style="fill:#00ffff;stroke-width:1.15046"
       d="m 93.242432,292.75794 c -4.361836,-0.40177 -10.707328,-1.58694 -12.79587,-2.38991 -0.592222,-0.2277 -1.756521,-0.51351 -2.587335,-0.63515 -0.830804,-0.12164 -2.058469,-0.47045 -2.728128,-0.77511 -0.66967,-0.30468 -1.965109,-0.8435 -2.878769,-1.19741 -2.372257,-0.91887 -9.854919,-4.67779 -12.188647,-6.12298 -1.088196,-0.67388 -2.716474,-1.79636 -3.618375,-2.49439 -0.901902,-0.69802 -2.271662,-1.70254 -3.043918,-2.23226 -3.076867,-2.1105 -13.893902,-13.22934 -15.794368,-16.23504 -0.582201,-0.92079 -1.56399,-2.22206 -2.18174,-2.89173 -1.679946,-1.82109 -7.447516,-11.19834 -9.267357,-15.06741 -2.883026,-6.12945 -6.289476,-15.13632 -6.73468,-17.80694 -0.111594,-0.66966 -0.521491,-2.86128 -0.910772,-4.87027 -0.38928,-2.00899 -0.882229,-4.68003 -1.095432,-5.93565 -0.518454,-3.05333 -0.441304,-13.13041 0.123513,-16.13278 2.014522,-10.70827 2.189679,-11.42245 5.412654,-22.06843 1.013669,-3.34831 2.097124,-7.18365 2.407668,-8.52298 0.310543,-1.33932 0.865996,-3.10973 1.234338,-3.93425 0.772441,-1.72903 0.704553,-3.44575 -0.29324,-7.41638 -0.324395,-1.29086 -0.680922,-3.10879 -0.792298,-4.03986 -0.200456,-1.67582 -0.191505,-1.70123 0.890777,-2.52672 1.375201,-1.04893 1.401765,-1.85898 0.0864,-2.63508 -1.142854,-0.6743 -1.947979,-2.14287 -2.210249,-4.03156 -0.09848,-0.70921 -0.384425,-2.26872 -0.635433,-3.46558 -0.54236,-2.58617 -0.286843,-3.33935 1.713827,-5.05186 1.387982,-1.18806 1.446678,-1.54034 0.748247,-4.49114 -0.257577,-1.08819 -0.659846,-3.27981 -0.893942,-4.87026 -0.234083,-1.59045 -0.700433,-4.53545 -1.03631,-6.54444 -1.150355,-6.88048 -1.250202,-7.61686 -1.568339,-11.5669 -0.967616,-12.01381 -0.668945,-19.89992 1.054821,-27.851883 1.721477,-7.941386 3.620873,-13.144853 6.362829,-17.431218 0.606982,-0.948873 1.439983,-2.389026 1.85111,-3.200338 0.411117,-0.811311 0.986944,-1.671973 1.279609,-1.912581 0.292665,-0.240607 1.521642,-1.567446 2.73105,-2.948529 1.209408,-1.381084 3.255189,-3.268899 4.546175,-4.195143 1.290999,-0.926245 2.851216,-2.107179 3.467172,-2.6243 0.615943,-0.51712 2.23075,-1.5743 3.58844,-2.349289 2.550739,-1.455991 6.791282,-4.279342 7.859748,-5.233024 0.334829,-0.29886 1.579257,-1.034977 2.76538,-1.635815 1.186123,-0.60084 2.692866,-1.535903 3.348316,-2.077922 1.704531,-1.409556 4.011304,-2.9921 5.649142,-3.875548 1.719165,-0.927319 5.827199,-3.735716 7.194036,-4.918088 0.548757,-0.474699 1.576082,-1.155855 2.282946,-1.513681 0.706854,-0.357826 2.093801,-1.214769 3.082079,-1.90432 1.599344,-1.115892 1.984183,-1.251747 3.500511,-1.235724 2.091694,0.0221 3.436454,0.68859 4.433498,2.197329 0.748719,1.132982 0.748719,1.132982 0.835774,41.00835 0.08709,39.875364 0.08709,39.875364 0.965753,41.549534 2.589474,4.93369 4.382751,6.50275 8.217091,7.18962 3.614946,0.64758 6.977766,0.38242 10.072606,-0.79424 1.39768,-0.5314 3.4931,-2.77489 4.43497,-4.74842 1.95133,-4.08863 1.81337,-0.78109 1.81337,-43.479563 0,-39.016522 0,-39.016522 0.8941,-40.42636 1.23819,-1.952411 2.0676,-2.422934 4.27101,-2.422934 1.42451,0 2.13178,0.176416 3.18736,0.79503 0.74614,0.437267 1.44216,0.933449 1.54672,1.102624 0.10458,0.169175 0.96775,0.700809 1.91818,1.181409 0.95046,0.480599 2.54994,1.515481 3.55444,2.299737 1.0045,0.784257 3.05914,2.18949 4.56588,3.122741 3.83958,2.378172 7.98475,5.183011 8.21833,5.560952 0.10826,0.175141 1.04293,0.743063 2.07708,1.262048 1.03415,0.518985 2.83911,1.655247 4.01102,2.525027 1.17191,0.86978 3.22655,2.255668 4.56588,3.079751 1.33934,0.824083 3.73641,2.42108 5.32686,3.548882 1.59046,1.127804 3.79795,2.65747 4.90554,3.399262 1.10759,0.741791 2.47735,1.925493 3.04391,2.63045 0.56657,0.704956 1.71868,2.053155 2.56022,2.995997 1.46628,1.642732 3.79677,5.151651 3.79677,5.71661 0,0.148508 0.32426,0.747204 0.72057,1.330436 1.0819,1.59215 3.64666,7.695846 4.53816,10.799993 0.7111,2.476091 1.41961,6.541023 2.33439,13.393254 0.40557,3.037987 0.41768,15.806144 0.0186,19.481094 -0.76937,7.08255 -1.70432,13.1007 -3.12104,20.08988 -1.54253,7.60982 -1.54253,7.60982 -1.53768,19.17671 0.004,12.09356 0.18829,14.22388 1.7408,20.24207 0.23754,0.92079 0.92418,3.59184 1.52587,5.93566 0.60169,2.34381 1.36541,5.08334 1.69716,6.08784 0.63868,1.93384 0.89798,2.83559 2.62584,9.13176 1.21697,4.43453 1.3579,5.12818 2.13366,10.50153 0.94838,6.56899 0.57539,15.41662 -1.00713,23.88956 -0.5498,2.94374 -2.16015,7.99344 -3.95142,12.39087 -0.72899,1.78963 -1.32543,3.44548 -1.32543,3.67968 0,0.54919 -2.7899,6.2566 -4.12287,8.43432 -0.56492,0.92295 -1.54634,2.66229 -2.18093,3.86523 -1.99086,3.77385 -6.43651,10.00585 -10.3641,14.5286 -5.38218,6.19777 -11.71874,12.02226 -17.09109,15.70995 -1.1039,0.75774 -2.72608,1.87713 -3.60484,2.48753 -0.87877,0.6104 -2.11011,1.27891 -2.73632,1.48558 -0.62621,0.20666 -1.75641,0.75378 -2.51154,1.21579 -1.85107,1.13256 -8.83563,4.19825 -10.09901,4.4327 -0.558,0.10354 -2.16605,0.51511 -3.57347,0.91458 -9.10406,2.58399 -18.5525,3.34678 -29.250019,2.36142 z m 22.068418,-2.68933 c 4.35849,-0.82693 13.18655,-3.55688 15.33867,-4.74328 0.60418,-0.33307 1.76247,-0.80099 2.57398,-1.03984 0.8115,-0.23883 1.97581,-0.76728 2.58733,-1.17434 0.61152,-0.40704 2.03006,-1.24142 3.1523,-1.85418 1.12225,-0.61275 2.62898,-1.56007 3.34832,-2.10515 0.71933,-0.54509 1.99275,-1.38847 2.82983,-1.87419 0.83708,-0.48572 2.27534,-1.59269 3.19611,-2.45993 0.9208,-0.86724 2.35904,-2.09237 3.19613,-2.72249 2.04561,-1.53988 9.04738,-9.01631 11.03413,-11.7822 1.75722,-2.4463 1.88501,-3.05636 1.00255,-4.78612 -1.77569,-3.48063 -4.94228,-15.27823 -5.84862,-21.7899 -0.95567,-6.86604 -1.06446,-16.271 -0.27816,-24.04697 0.98807,-9.77134 1.0593,-10.21423 4.33228,-26.93872 0.34402,-1.75786 1.69146,-7.44238 2.99434,-12.63227 1.30287,-5.18988 2.53336,-10.46348 2.73443,-11.7191 0.20108,-1.25561 1.51445,-6.88356 2.91863,-12.50655 1.40417,-5.62299 2.76944,-11.58147 3.03392,-13.24107 0.2645,-1.65958 0.68542,-3.90778 0.9354,-4.99597 0.79754,-3.47179 1.90998,-9.26577 2.22616,-11.59443 0.16842,-1.24048 0.59561,-3.83065 0.94931,-5.75594 0.52236,-2.84328 0.67327,-5.15785 0.80387,-12.32788 0.22215,-12.197238 -0.2617,-15.825562 -3.47059,-26.025521 -1.94415,-6.179793 -2.65037,-7.681653 -5.87649,-12.49708 -2.62069,-3.911721 -7.21808,-8.520865 -10.1277,-10.153574 -0.86901,-0.487641 -2.2649,-1.4157 -3.10198,-2.062354 -0.83707,-0.646656 -2.54927,-1.849809 -3.8049,-2.673675 -1.25561,-0.823866 -4.09802,-2.703824 -6.31643,-4.177684 -2.21843,-1.473861 -4.53829,-2.942927 -5.15528,-3.264591 -0.61696,-0.321663 -1.95234,-1.176653 -2.96751,-1.899979 -2.74584,-1.956468 -6.339,-4.347467 -9.75995,-6.49457 -1.67416,-1.050757 -3.51438,-2.32053 -4.08939,-2.821717 -2.36961,-2.065383 -5.11639,-2.610379 -6.62345,-1.31418 -0.85406,0.734551 -0.85406,0.734551 -1.03527,56.236443 -0.15776,48.324042 -0.24587,56.151432 -0.68128,60.524372 -0.27505,2.76235 -0.63823,7.05522 -0.80707,9.53969 -0.16884,2.48446 -0.37806,4.63223 -0.46494,4.77282 -0.0869,0.14058 -0.29168,1.25828 -0.4551,2.48379 -0.59347,4.45049 -0.93536,6.5766 -1.80228,11.20777 -0.48575,2.59495 -1.03965,5.6854 -1.23089,6.86769 -0.20976,1.29676 -0.70252,2.77085 -1.24202,3.71548 -0.85421,1.49568 -0.99331,1.59573 -3.1026,2.23172 -4.20085,1.26664 -10.498558,0.77186 -12.108222,-0.95128 -1.885671,-2.01862 -4.975249,-16.96901 -6.257378,-30.27933 -1.166369,-12.10851 -1.172179,-12.47382 -1.093396,-68.714569 0.05223,-37.287655 -0.02474,-55.394896 -0.238765,-56.189848 -0.254126,-0.94374 -0.551565,-1.279228 -1.52223,-1.716936 -1.700228,-0.766696 -3.393599,-0.437536 -5.329981,1.036048 -0.842412,0.641073 -2.103809,1.52043 -2.803104,1.954128 -0.699295,0.433698 -1.726619,1.187615 -2.282935,1.675372 -0.556328,0.487759 -1.713297,1.224995 -2.571045,1.638304 -0.857759,0.413308 -2.569963,1.505006 -3.804899,2.425994 -1.234948,0.92099 -3.293096,2.304506 -4.573682,3.074481 -1.280576,0.769975 -3.788632,2.40001 -5.573453,3.622299 -1.784821,1.222288 -4.092998,2.70765 -5.129284,3.300804 -1.036276,0.593154 -2.914998,1.842864 -4.174934,2.777132 -1.259936,0.934268 -3.246087,2.280596 -4.413688,2.99184 -4.216671,2.568591 -7.837313,6.18152 -11.514535,11.490003 -3.086484,4.455686 -6.324875,13.186008 -7.819838,21.081343 -0.5526,2.918391 -0.688941,4.993766 -0.819909,12.480076 -0.150526,8.604789 -0.03567,10.966689 0.836315,17.198159 1.069615,7.64381 1.746165,11.12766 3.960464,20.39428 0.800098,3.34831 1.533319,6.7316 1.629394,7.51843 0.173696,1.42259 1.66415,7.78008 3.732248,15.91976 1.288214,5.07021 1.466858,5.83278 1.925408,8.21859 0.193058,1.00449 0.542762,2.6482 0.777122,3.6527 0.23436,1.00449 0.785327,3.47007 1.224376,5.47907 0.43905,2.00898 1.393573,6.04978 2.121181,8.97955 2.049864,8.25401 3.136483,14.96243 4.41279,27.2431 1.419734,13.66068 1.078037,20.63362 -1.660663,33.88958 -0.928847,4.49586 -1.838077,7.2672 -3.892519,11.86438 -1.533976,3.43253 -1.537012,3.4457 -0.960944,4.15521 0.317838,0.39148 1.536737,1.89398 2.708639,3.33891 2.42137,2.98546 8.451832,9.22449 10.501534,10.86473 0.753367,0.60288 2.294774,1.93462 3.425341,2.95942 1.130555,1.02479 2.774273,2.22714 3.652706,2.67186 0.878421,0.44473 2.145029,1.24702 2.814699,1.78286 1.458356,1.16696 5.984973,3.59239 8.522976,4.56676 1.0045,0.38564 2.821936,1.12176 4.038753,1.63584 4.249149,1.79513 10.37243,3.40911 15.746738,4.15054 4.499329,0.6207 21.81424,0.42844 25.56893,-0.28392 z M 98.302885,188.80969 c -1.318426,-0.13908 -2.842151,-0.39974 -3.38603,-0.57924 -1.724364,-0.56908 -4.748805,-2.91288 -6.232401,-4.82982 -1.340043,-1.73141 -1.505248,-2.15377 -2.543157,-6.50128 -1.223156,-5.12353 -2.352458,-11.441 -3.08928,-17.28184 -0.263985,-2.0927 -0.613206,-4.72163 -0.776042,-5.84209 -0.162825,-1.12045 -0.296059,-2.7761 -0.296059,-3.67922 0,-0.90314 -0.200813,-2.97977 -0.446252,-4.61476 -0.334289,-2.22687 -0.499034,-7.75713 -0.656647,-22.0419 -0.193541,-17.54037 -0.169969,-19.1027 0.294046,-19.48697 0.404604,-0.33506 0.594845,-0.34274 0.961046,-0.0389 0.39019,0.32382 0.455847,1.93403 0.451475,11.07148 -0.0058,12.03962 0.42139,23.06054 1.086907,28.04292 0.245991,1.84157 0.44532,4.17017 0.442973,5.17466 -0.0034,1.58731 1.191909,12.48132 2.121388,19.3289 0.50168,3.69598 1.203528,7.35996 1.686744,8.80551 0.247809,0.74132 0.450554,1.63903 0.450554,1.99487 0,1.80395 3.376894,6.20465 5.694264,7.42066 1.39699,0.73305 6.483336,1.61913 8.144756,1.41887 5.07725,-0.61199 8.42083,-2.23303 10.1204,-4.9066 2.73338,-4.29981 5.02086,-17.83809 6.47534,-38.3237 0.17831,-2.51123 0.40778,-5.18227 0.50994,-5.93565 0.10217,-0.75336 0.26994,-8.698 0.37282,-17.65474 0.18706,-16.28498 0.18706,-16.28498 0.90705,-16.38686 0.396,-0.056 0.8616,0.0398 1.0347,0.21284 0.20889,0.20889 0.29816,4.95106 0.2655,14.10391 -0.0476,13.31833 -0.32387,20.64155 -0.98704,26.15757 -0.17376,1.44529 -0.42521,4.32179 -0.55875,6.39223 -0.27779,4.30636 -1.27515,11.71804 -2.20645,16.3967 -0.3499,1.75787 -0.75233,4.22344 -0.89427,5.47905 -0.31527,2.78881 -1.08665,6.10426 -1.82295,7.83517 -1.3318,3.13088 -4.84115,6.63712 -7.51362,7.507 -1.28467,0.41815 -6.11585,1.15634 -6.90144,1.05453 -0.17179,-0.0223 -1.391079,-0.15429 -2.709515,-0.29337 z m -61.458064,65.53278 c 0.421608,-0.26789 2.705602,-6.44889 3.902297,-10.56054 1.086182,-3.73193 2.168281,-10.40524 2.599197,-16.02937 0.498044,-6.50011 0.04073,-16.21769 -1.122238,-23.846 -0.255229,-1.67417 -0.576138,-4.11898 -0.713135,-5.43294 -0.23283,-2.2332 -0.886302,-3.69014 -1.417054,-3.15939 -0.109294,0.10929 -0.02048,3.52559 0.197372,7.59168 0.507169,9.46422 0.55665,11.80813 0.266113,12.6063 -0.260602,0.71593 -1.96259,1.45114 -2.54364,1.09876 -0.737122,-0.44702 -3.556562,-3.78404 -3.850642,-4.55754 -0.339869,-0.89391 -0.869712,-8.25992 -1.094799,-15.22016 -0.149997,-4.63814 -0.149997,-4.63814 0.751364,-5.47905 0.495756,-0.4625 1.216069,-1.05621 1.600702,-1.31935 0.929996,-0.63623 0.603127,-1.09162 -1.428467,-1.99008 -1.978259,-0.87487 -2.105707,-1.15106 -2.543238,-5.51163 -0.181151,-1.8053 -0.459194,-3.77256 -0.617876,-4.37171 -0.473529,-1.78786 -1.194671,-6.14072 -1.2007,-7.24739 -0.0046,-0.78824 0.28773,-1.34958 1.238872,-2.38144 1.191863,-1.29301 1.22227,-1.37464 0.719197,-1.93054 -0.804929,-0.88943 -2.504858,-1.10524 -3.176519,-0.40326 -0.798752,0.8348 -4.268028,11.36483 -4.264704,12.94434 8.29e-4,0.39403 -0.19552,1.33281 -0.436322,2.08618 -1.502234,4.69989 -3.335375,11.95188 -4.193421,16.58938 -0.617566,3.33781 -0.518581,13.26799 0.17296,17.35035 0.656992,3.87838 2.144087,10.31272 2.763424,11.95667 0.23459,0.6227 0.719612,2.15952 1.077819,3.41512 1.309843,4.59131 2.234765,6.9222 4.106733,10.34935 1.051612,1.92527 2.549968,4.73329 3.329669,6.24004 1.458378,2.81826 2.125817,3.8406 4.002916,6.13135 1.137792,1.38851 1.269957,1.46474 1.87412,1.08087 z m 130.897499,-1.04829 c 0.48407,-0.71153 1.29705,-1.91006 1.80661,-2.66343 2.08111,-3.07684 3.44994,-5.43233 4.24534,-7.30542 0.4621,-1.08819 1.13229,-2.45796 1.4893,-3.04391 1.04369,-1.71298 3.99657,-9.10833 4.49699,-11.26251 0.25278,-1.08821 0.93962,-3.82773 1.5263,-6.08784 1.54835,-5.96479 2.1416,-10.52577 2.13795,-16.43718 -0.004,-5.9113 -0.48451,-9.63727 -2.22212,-17.21811 -1.61372,-7.04029 -2.49835,-10.40241 -4.35969,-16.56941 -2.78819,-9.23781 -3.24606,-11.48147 -3.46464,-16.97747 -0.136,-3.41976 -0.32352,-5.1166 -0.60549,-5.47906 -0.38463,-0.49441 -0.4321,-0.49477 -0.81244,-0.006 -0.41236,0.52968 -5.15279,18.45547 -5.53773,20.94076 -0.11668,0.75338 -0.74611,3.69837 -1.39873,6.54444 -0.65261,2.84606 -1.67232,7.36628 -2.266,10.04495 -0.59369,2.67864 -1.27572,5.71249 -1.51562,6.74189 -0.23991,1.02939 -0.6448,4.79623 -0.89977,8.37078 -0.25497,3.57454 -0.6005,8.14288 -0.76785,10.15186 -0.52637,6.31904 -0.39893,10.70484 0.64569,22.22063 0.52689,5.80845 2.68874,13.89737 4.84257,18.11922 0.81245,1.59253 1.53423,1.56974 2.65933,-0.084 z M 37.622254,211.28102 c 0.141898,-0.3698 -0.237546,-12.4666 -0.487299,-15.53487 -0.131958,-1.62111 -0.602288,-2.37005 -1.14657,-1.82577 -0.375521,0.37552 0.239744,15.85275 0.67831,17.0633 0.274074,0.75649 0.725456,0.89696 0.955559,0.29734 z m 2.067961,-20.79278 c 0.330964,-0.39878 0.32428,-0.69995 -0.03877,-1.75026 -0.34875,-1.00879 -0.603967,-1.28774 -1.246211,-1.36208 -0.564472,-0.0653 -0.953972,0.11546 -1.293667,0.60042 -0.725813,1.03625 -0.595155,1.64632 0.503256,2.34976 1.193313,0.76423 1.552486,0.79229 2.07545,0.16216 z m -4.387963,-9.17023 c -0.842987,-3.87913 -1.444309,-6.86387 -1.629141,-8.08638 -0.187594,-1.24083 -0.57569,-1.68483 -1.054338,-1.20619 -0.198362,0.19836 -0.145223,1.16998 0.155875,2.84999 0.251261,1.40196 0.596651,3.82872 0.767518,5.39281 0.180242,1.64984 0.521951,3.1662 0.813891,3.61177 0.457837,0.69875 0.546399,0.72478 0.982388,0.2888 0.436001,-0.436 0.432734,-0.69299 -0.03624,-2.8508 z m 69.867998,-0.70805 c 1.83659,-0.5101 3.29869,-2.66458 3.7321,-5.49946 0.11251,-0.73632 0.39204,-2.29759 0.62103,-3.4695 0.22899,-1.17192 0.57472,-3.02109 0.7683,-4.10931 0.19357,-1.08819 0.53341,-2.86888 0.75518,-3.95709 0.22179,-1.08819 0.48882,-3.48529 0.59344,-5.32686 0.10457,-1.84157 0.38513,-4.99203 0.62339,-7.00102 0.86394,-7.28446 1.07881,-9.5211 1.37441,-14.30643 0.32775,-5.30601 0.41678,-23.85286 0.11823,-24.63087 -0.31118,-0.81091 -1.16541,-0.54687 -3.27941,1.01365 -1.44692,1.06809 -2.80532,1.74189 -4.7559,2.35904 -1.50175,0.47515 -2.81071,1.06937 -2.9088,1.32049 -0.32353,0.82834 -0.52789,13.75783 -0.29516,18.67352 0.22839,4.82368 0.22839,4.82368 1.31708,5.27857 1.6588,0.6931 3.15023,1.95291 3.60747,3.04727 0.29611,0.70867 0.41163,2.58223 0.41163,6.67556 0,5.54628 -0.0195,5.72383 -0.7741,7.0113 -1.21351,2.0707 -2.61314,2.63117 -6.2099,2.48669 -2.392591,-0.0961 -3.127365,-0.24502 -4.063574,-0.82364 -2.073954,-1.28177 -2.205682,-1.82621 -2.101059,-8.68451 0.07041,-4.61393 0.200008,-6.26646 0.543614,-6.93093 0.473564,-0.91576 2.678475,-2.68685 3.345005,-2.68685 0.214042,0 0.604416,-0.21524 0.867503,-0.47833 0.417955,-0.41796 0.47832,-1.92945 0.47832,-11.97631 0,-12.81859 0.105501,-12.19169 -2.130735,-12.66165 -1.946219,-0.40903 -3.906313,-1.3297 -5.802119,-2.7253 -2.149275,-1.58221 -2.91143,-1.71908 -3.337181,-0.59926 -0.716172,1.88367 -0.05304,26.7135 0.796106,29.81062 0.09181,0.33483 0.287753,2.66343 0.435426,5.17467 0.147673,2.51123 0.399842,5.45622 0.560376,6.54443 0.160536,1.0882 0.651666,4.5811 1.091406,7.76199 1.000162,7.23473 1.584872,10.55359 2.442434,13.8636 1.21049,4.67225 1.712332,5.01595 7.466248,5.11361 1.42304,0.0242 3.09219,-0.0963 3.70924,-0.26769 z M 32.678539,162.94685 c 0.259578,-0.485 0.159891,-1.50584 -0.438451,-4.48977 -0.425934,-2.12413 -0.880492,-4.67903 -1.010137,-5.67759 -0.202446,-1.55928 -0.356469,-1.88152 -1.091245,-2.28294 -0.804595,-0.43957 -0.888407,-0.42742 -1.407585,0.20393 -0.505983,0.61531 -0.518132,0.83123 -0.145556,2.58734 0.223568,1.0538 0.771497,3.69669 1.217611,5.87309 0.446124,2.17641 0.870459,4.05983 0.942962,4.18539 0.279227,0.48354 1.606695,0.20914 1.932401,-0.39945 z m 72.173171,-5.43256 c 0.69925,-0.5656 0.72119,-0.72731 0.81515,-6.00716 0.0532,-2.98425 0.0103,-5.88354 -0.0942,-6.44287 -0.24709,-1.31707 -1.53615,-1.88393 -4.28414,-1.88393 -2.38243,0 -4.003173,0.65503 -4.446169,1.79694 -0.179552,0.46283 -0.26189,2.94323 -0.198684,5.98504 0.146327,7.04242 0.123422,7.00998 5.011933,7.09178 2.02549,0.034 2.60863,-0.0646 3.19613,-0.5398 z M 94.612191,109.04132 c -1.411843,-0.77223 -1.369759,-0.0296 -1.369759,-24.172994 0,-20.903042 0.0436,-22.922355 0.502601,-23.303916 0.385161,-0.32014 2.098919,-0.439376 7.333827,-0.510257 5.81481,-0.07874 6.94019,-0.02108 7.56378,0.387507 0.73256,0.480002 0.73256,0.480002 0.73256,23.277499 0,12.538623 -0.0851,23.019221 -0.18907,23.290241 -0.45042,1.17377 -1.66359,1.38378 -7.9383,1.37414 -3.771286,-0.006 -6.254688,-0.13387 -6.635639,-0.34222 z m 12.200639,-2.21793 c 0.36281,-0.49665 0.43163,-3.97565 0.43163,-21.818396 0,-18.891896 -0.0527,-21.280159 -0.47833,-21.705859 -0.39709,-0.397092 -1.35166,-0.478329 -5.62054,-0.478329 -4.737948,0 -5.166517,0.04541 -5.451301,0.577538 -0.199973,0.373651 -0.318574,8.082345 -0.335946,21.835679 -0.0268,21.258137 -0.0268,21.258137 0.668083,21.820847 0.623848,0.50517 1.188896,0.55233 5.524844,0.46105 4.36308,-0.0918 4.87165,-0.15879 5.26156,-0.69253 z"
       id="path1" /></g></svg>
